<?xml version="1.0" encoding="utf-8"?>
<!-- Generator: Adobe Illustrator 20.1.0, SVG Export Plug-In . SVG Version: 6.00 Build 0)  -->
<svg version="1.1" id="Layer_1" xmlns="http://www.w3.org/2000/svg" xmlns:xlink="http://www.w3.org/1999/xlink" x="0px" y="0px"
	 viewBox="0 0 280.3 280.3" style="enable-background:new 0 0 280.3 280.3;" xml:space="preserve">
<style type="text/css">
	.st0{fill:#FFFFFF;}
</style>
<g>
	<path class="st0" d="M247.9,280.3H32.4c-18,0-32.4-14.5-32.4-32.4V32.5C0,14.5,14.5,0,32.4,0h215.4c18,0,32.5,14.5,32.5,32.5v215.4
		C280.3,265.9,265.9,280.3,247.9,280.3 M140.4,86.4c-29.7,0-54,24.2-54,54s24.2,54,54,54c29.7,0,54-24.2,54-54
		C194.3,110.3,170.1,86.4,140.4,86.4 M247.9,43c0-5.9-4.7-10.9-10.9-10.9h-32.5c-5.9,0-10.9,4.7-10.9,10.9v32.5
		c0,5.9,4.7,10.9,10.9,10.9h32.5c5.9,0,10.9-4.7,10.9-10.9V43z M247.9,118.5h-24.2c2,7,2.7,14.1,2.7,21.5
		c0,47.7-38.7,86.4-86.4,86.4c-47.7,0-86.4-38.7-86.4-86.4c0-7.4,1.2-14.9,2.7-21.5H32.4v118.5c0,5.9,4.7,10.9,10.9,10.9h193.9
		c5.9,0,11-4.7,11-10.9V118.5H247.9z"/>
</g>
</svg>
